<?xml version="1.0" encoding="UTF-8" standalone="no"?>
<!-- Created with Inkscape (http://www.inkscape.org/) -->

<svg
   xmlns:dc="http://purl.org/dc/elements/1.1/"
   xmlns:cc="http://creativecommons.org/ns#"
   xmlns:rdf="http://www.w3.org/1999/02/22-rdf-syntax-ns#"
   xmlns:svg="http://www.w3.org/2000/svg"
   xmlns="http://www.w3.org/2000/svg"
   xmlns:sodipodi="http://sodipodi.sourceforge.net/DTD/sodipodi-0.dtd"
   xmlns:inkscape="http://www.inkscape.org/namespaces/inkscape"
   width="368px"
   height="48px"
   viewBox="0 0 193.351 25.285999"
   version="1.1"
   id="svg8"
   inkscape:version="0.92.4 (5da689c313, 2019-01-14)"
   sodipodi:docname="logo.svg">
  <defs
     id="defs2" />
  <sodipodi:namedview
     id="base"
     pagecolor="#ffffff"
     bordercolor="#666666"
     borderopacity="1.0"
     inkscape:pageopacity="0.0"
     inkscape:pageshadow="2"
     inkscape:zoom="0.64"
     inkscape:cx="370.59961"
     inkscape:cy="157.12944"
     inkscape:document-units="mm"
     inkscape:current-layer="layer1"
     showgrid="false"
     inkscape:window-width="958"
     inkscape:window-height="1008"
     inkscape:window-x="953"
     inkscape:window-y="0"
     inkscape:window-maximized="0" />
  <metadata
     id="metadata5">
    <rdf:RDF>
      <cc:Work
         rdf:about="">
        <dc:format>image/svg+xml</dc:format>
        <dc:type
           rdf:resource="http://purl.org/dc/dcmitype/StillImage" />
        <dc:title></dc:title>
      </cc:Work>
    </rdf:RDF>
  </metadata>
  <g
     inkscape:label="Layer 1"
     inkscape:groupmode="layer"
     id="layer1"
     transform="translate(0,-271.714)">
    <g
       aria-label="sami the sorceress"
       style="font-style:normal;font-weight:normal;font-size:27.46697426px;line-height:1.25;font-family:sans-serif;letter-spacing:0px;word-spacing:0px;fill:#000000;fill-opacity:1;stroke:none;stroke-width:0.6866743"
       id="text12"
       transform="translate(-9.3226069,150.64829)">
      <path
         d="m 14.63791,124.30742 q 1.877625,-0.49622 3.446784,0.228 1.059517,0.50964 1.649627,1.40822 0.590111,0.89858 0.469407,2.01174 -0.120705,1.11317 -0.737639,1.64963 -0.603522,0.53646 -0.992459,0.83152 -0.388936,0.29506 -0.737638,0.61693 -0.683992,0.64376 -0.107293,1.1534 1.810567,1.56916 2.078799,2.64209 0.281644,1.07293 -0.375525,1.89104 -0.911989,1.12657 -1.944683,2.14585 -1.019282,1.00587 -2.025153,2.03857 -0.49623,0.48282 -0.603522,-0.0537 -0.174351,-0.73764 -1.58257,-1.28751 -1.394807,-0.56329 -2.950554,-1.07293 -0.2816439,-0.10729 -0.04023,-0.40235 0.362114,-0.37552 0.75105,-0.75105 0.388937,-0.37552 0.777873,-0.73764 0.603523,-0.56329 0.402349,-0.99246 -0.187763,-0.44258 -0.710816,-0.99246 -1.314337,-1.36798 -1.274102,-2.56161 0.05365,-1.19364 0.871754,-2.10563 0.764462,-0.84493 1.716686,-1.54233 0.965636,-0.71082 1.823979,-1.58257 0.107293,-0.0939 0.281644,0.0671 1.797155,1.59598 2.990788,1.60939 1.207045,0.0134 1.569159,-0.71082 0.362113,-0.73763 -0.06706,-1.52892 -0.429171,-0.8047 -1.394807,-1.32775 -1.461865,-0.72422 -3.205374,-0.13411 -0.348702,0.13411 -0.41576,-0.14753 -0.06706,-0.28165 0.33529,-0.36212 z m -2.145857,12.04363 q -0.134116,0.228 0.08047,0.3487 0.952225,0.44258 1.904449,0.87176 0.952224,0.42917 1.91786,0.83152 0.67058,0.29505 1.341161,-0.76447 0.831519,-1.32775 -2.199504,-3.48701 -0.469406,-0.28165 -1.153398,0.26823 z m 1.850802,-2.78962 q 0.160939,0.12071 0.295055,-0.0134 l 2.494559,-2.44091 q 0.120705,-0.13412 0.06706,-0.24141 -0.04023,-0.1207 -0.201174,-0.13411 -0.764461,-0.0805 -1.689862,-0.59012 -1.488689,-0.84493 -1.944684,-1.13998 -0.455994,-0.29506 -1.16681,0.53646 -0.898577,1.05952 -0.01341,2.02516 0.898578,0.96563 2.159269,1.99832 z"
         style="font-style:normal;font-variant:normal;font-weight:normal;font-stretch:normal;font-family:UnifrakturMaguntia;-inkscape-font-specification:UnifrakturMaguntia;fill:#ff0090;fill-opacity:1;stroke:#000000;stroke-width:1.5;stroke-linecap:butt;stroke-linejoin:round;stroke-miterlimit:4;stroke-dasharray:none;stroke-opacity:1;paint-order:markers stroke fill"
         id="path4526"
         inkscape:connector-curvature="0" />
      <path
         d="m 28.076342,139.03337 q -0.683992,0.52305 -1.5021,1.1534 -0.818108,0.61693 -1.515512,1.13999 -0.241409,0.18776 -0.388936,0.16094 -0.134117,-0.0268 -0.107293,-0.24141 0,-0.28165 -0.83152,-1.07293 -2.186092,-2.05198 -2.105623,-5.33782 0.08047,-2.81644 2.615264,-4.76112 0.777873,-0.59011 1.448454,-1.24728 0.683992,-0.65717 1.207045,-1.59598 0.214585,-0.41576 0.59011,-0.0268 2.038565,2.3068 4.077129,2.72256 0.643758,0.1207 0.134116,0.50964 -0.630345,0.45599 -0.683992,1.12658 v 0.0268 l 0.04024,6.1291 q 0,0.61694 0.442583,0.84493 0.455995,0.228 0.979048,-0.3487 0.201174,-0.22799 0.375525,-0.10729 0.187762,0.10729 0.01341,0.40235 -0.482818,0.72423 -0.938812,1.42163 -0.442583,0.6974 -0.75105,1.44845 l -0.01341,0.0134 q -0.187762,0.30847 -0.455995,0 -0.147527,-0.16094 -0.348701,-0.21458 -1.528924,-0.33529 -1.931272,-2.02515 -0.02682,-0.0805 -0.134116,-0.16094 -0.120705,-0.0134 -0.214586,0.0402 z m 0.147528,-7.89944 q -0.83152,-0.22799 -1.944683,-1.28751 -0.536465,-0.64376 -0.858343,-0.12071 -1.421631,2.11904 -1.113164,4.68066 0.429172,3.66137 2.575029,4.51971 0.01341,0 0.02682,0.0134 0.549876,0.17435 1.327749,-0.65717 0.05365,-0.0805 0.05365,-0.14753 -0.01341,-0.20117 -0.01341,-0.63034 l 0.120705,-6.15593 q 0,-0.16094 -0.174351,-0.21459 z"
         style="font-style:normal;font-variant:normal;font-weight:normal;font-stretch:normal;font-family:UnifrakturMaguntia;-inkscape-font-specification:UnifrakturMaguntia;fill:#ff0090;fill-opacity:1;stroke:#000000;stroke-width:1.5;stroke-linecap:butt;stroke-linejoin:round;stroke-miterlimit:4;stroke-dasharray:none;stroke-opacity:1;paint-order:markers stroke fill"
         id="path4528"
         inkscape:connector-curvature="0" />
      <path
         d="m 39.006803,130.38288 -0.01341,5.68653 q -0.01341,2.18609 0.804696,2.48114 0.09388,0.0805 0.09388,0.18777 0,0.10729 -0.09388,0.17435 -1.180221,0.87175 -1.958095,2.40067 -0.08047,0.12071 -0.214585,0.12071 -0.120705,0 -0.187763,-0.12071 -0.777873,-1.51551 -2.038564,-2.38726 -0.08047,-0.0805 -0.08047,-0.18776 0,-0.1073 0.09388,-0.18777 0.898578,-0.29505 0.871755,-2.48114 v -4.7343 q 0,-1.36799 -0.509641,-1.67645 -0.590111,-0.38894 -0.965636,0.28164 -0.147528,0.28164 -0.348702,0.16094 -0.187763,-0.13412 0.02682,-0.49623 0.388937,-0.61693 0.737639,-1.26069 0.362113,-0.64376 0.737638,-1.28752 0.214586,-0.38893 0.603523,-0.16093 l 0.01341,0.0134 q 1.931272,0.95222 2.33362,2.36044 0.04023,0.13412 0.147528,0.14753 0.107293,0.0402 0.214585,-0.0268 0.657169,-0.56328 1.381396,-1.20704 0.737639,-0.65717 1.019282,-1.12658 0.214586,-0.37552 0.590111,-0.16093 1.931272,0.95222 2.347032,2.3202 0.05365,0.18777 0.160939,0.18777 0.107293,0 0.187762,-0.0805 0.724227,-0.59011 1.421631,-1.22046 0.710815,-0.64376 0.992459,-1.20704 0.147528,-0.34871 0.482818,0.0134 0.804696,0.84493 1.381396,1.34116 0.576699,0.49623 1.944683,0.73764 0.201174,0.0402 0.214586,0.17435 0,0.22799 -0.147528,0.24141 -0.348702,0.13411 -0.616934,0.4694 -0.268232,0.32188 -0.268232,1.08634 v 5.83405 q 0,1.36799 0.509641,1.67645 0.590111,0.34871 0.965636,-0.29505 0.134116,-0.25482 0.321878,-0.10729 0.201174,0.13411 0.01341,0.45599 -0.402348,0.63035 -0.764462,1.2741 -0.362113,0.63035 -0.724227,1.26069 -0.241409,0.37553 -0.603522,0.17435 -1.220456,-0.59011 -1.83739,-1.44845 -0.603523,-0.85834 -0.603523,-2.05197 l 0.01341,-7.02769 q 0,-0.40235 -0.214586,-0.54987 l -1.126575,-0.93882 q -0.160939,-0.10729 -0.321879,-0.0134 -0.871754,0.67058 -1.072928,0.84493 -0.201174,0.16094 -0.201174,0.36212 l -0.01341,5.6597 q 0,2.1995 0.818108,2.48114 0.09388,0.0939 0.09388,0.18777 0,0.0805 -0.09388,0.17435 -1.180222,0.84493 -1.971506,2.40067 -0.08047,0.12071 -0.214586,0.12071 -0.134116,0 -0.174351,-0.12071 -0.764462,-1.48868 -2.038565,-2.38726 -0.09388,-0.0671 -0.09388,-0.17435 0,-0.1073 0.09388,-0.20118 0.952225,-0.29505 0.885167,-2.48114 l -0.01341,-4.7343 q 0,-0.99246 -0.509641,-1.67645 -0.630346,-0.83152 -1.274103,-0.32188 l -1.126575,0.85834 -0.05365,0.0805 z"
         style="font-style:normal;font-variant:normal;font-weight:normal;font-stretch:normal;font-family:UnifrakturMaguntia;-inkscape-font-specification:UnifrakturMaguntia;fill:#ff0090;fill-opacity:1;stroke:#000000;stroke-width:1.5;stroke-linecap:butt;stroke-linejoin:round;stroke-miterlimit:4;stroke-dasharray:none;stroke-opacity:1;paint-order:markers stroke fill"
         id="path4530"
         inkscape:connector-curvature="0" />
      <path
         d="m 55.261673,137.77268 -0.09388,-7.34956 q 0,-0.25482 -0.08047,-0.41576 -0.321879,-0.52305 -0.549876,-0.25482 l -0.536464,0.54987 q -0.214586,0.24141 -0.41576,0.0537 -0.187763,-0.18776 0.06706,-0.52305 0.590111,-0.73764 1.059517,-1.47528 0.469406,-0.73764 0.965636,-1.46186 0.214586,-0.25483 0.496229,0.0134 0.563288,0.68399 1.099752,1.20704 0.536465,0.50964 1.528924,1.08634 0.281643,0.10729 0.241409,0.25482 -0.02682,0.14753 -0.174351,0.16094 -0.348702,0.13412 -0.616934,0.46941 -0.268233,0.32188 -0.268233,1.08634 v 5.67311 q 0,1.36798 0.509642,1.67645 0.59011,0.3487 0.965635,-0.29506 0.134117,-0.25482 0.321879,-0.10729 0.201174,0.13412 0,0.456 -0.402348,0.63034 -0.75105,1.2741 -0.348702,0.63034 -0.710815,1.26069 -0.254821,0.37553 -0.630346,0.16094 -1.207045,-0.5767 -1.823979,-1.40822 -0.603522,-0.83152 -0.603522,-2.09221 z m 1.944683,-15.91958 q 1.488689,0 1.354573,1.43504 -0.08047,0.72423 -0.91199,1.46187 -0.818108,0.72422 -1.300926,0.71081 -0.482818,0 -0.737638,-0.76446 -0.254821,-0.76446 -0.201174,-1.40822 0.04023,-0.61693 0.59011,-1.01928 0.563288,-0.41576 1.207045,-0.41576 z"
         style="font-style:normal;font-variant:normal;font-weight:normal;font-stretch:normal;font-family:UnifrakturMaguntia;-inkscape-font-specification:UnifrakturMaguntia;fill:#ff0090;fill-opacity:1;stroke:#000000;stroke-width:1.5;stroke-linecap:butt;stroke-linejoin:round;stroke-miterlimit:4;stroke-dasharray:none;stroke-opacity:1;paint-order:markers stroke fill"
         id="path4532"
         inkscape:connector-curvature="0" />
      <path
         d="m 73.742868,129.99395 -0.01341,7.5105 q 0,0.41576 0.201174,0.54987 l 0.965636,0.54988 q 0.281643,0.24141 0.938812,-0.64376 0.120705,-0.17435 0.321879,-0.0536 0.214585,0.1207 0.02682,0.32187 -1.435042,1.56916 -2.159269,3.08467 -0.227997,0.28165 -0.49623,0 -0.75105,-0.88516 -1.394807,-1.32774 -0.643757,-0.44259 -1.91786,-0.75105 -0.214586,-0.0402 -0.227997,-0.20118 -0.01341,-0.16094 0.160939,-0.228 0.898578,-0.21458 0.885166,-1.54233 l -0.01341,-7.25568 q 0.01341,-0.24141 -0.201174,-0.24141 h -1.58257 q -0.187763,0 -0.241409,-0.14753 -0.05365,-0.14753 0.120704,-0.25482 1.609393,-1.13999 3.272433,-2.74938 1.676451,-1.60939 3.044435,-3.05785 0.174351,-0.18776 0.33529,-0.067 0.174351,0.10729 0.01341,0.32188 -0.616934,0.76446 -1.24728,1.98491 -0.616934,1.22046 -0.75105,2.22633 -0.02682,0.13412 0.01341,0.20117 0.08047,0.0805 0.187762,0.0805 h 2.320208 q 0.09388,0 0.16094,0.0671 0.06706,0.0939 0.06706,0.17435 l -0.05365,1.00587 q -0.02682,0.21459 -0.227997,0.21459 h -2.320208 q -0.187763,0 -0.187763,0.228 z"
         style="font-style:normal;font-variant:normal;font-weight:normal;font-stretch:normal;font-family:UnifrakturMaguntia;-inkscape-font-specification:UnifrakturMaguntia;fill:#ff0090;fill-opacity:1;stroke:#000000;stroke-width:1.5;stroke-linecap:butt;stroke-linejoin:round;stroke-miterlimit:4;stroke-dasharray:none;stroke-opacity:1;paint-order:markers stroke fill"
         id="path4534"
         inkscape:connector-curvature="0" />
      <path
         d="m 77.82,123.28814 q -0.174351,-0.25482 0.02682,-0.38893 0.201174,-0.14753 0.402348,0.0939 0.590111,0.73764 0.952224,1.58257 0.04023,0.13411 0.187763,0.13411 0.120704,0.0268 0.214586,-0.10729 0.777873,-1.39481 2.440912,-2.14586 1.676451,-0.76446 3.393137,-0.61693 0.348702,0.0134 0.348702,0.28164 0,0.26823 -0.33529,0.24141 -1.408219,-0.0939 -2.454324,0.64376 -1.046106,0.73764 -1.032694,2.84326 l 0.02682,3.0042 q 0,0.13412 0.107293,0.20117 0.107293,0.0537 0.214586,-0.0134 0.737638,-0.40235 1.475276,-0.88516 0.751051,-0.48282 1.381396,-1.08634 0.49623,-0.49623 0.563288,0.17435 0.05365,0.49623 0.41576,0.88516 0.362113,0.38894 0.67058,0.76447 1.810567,2.30679 1.864214,4.98911 0.09388,3.94302 -2.776203,6.97404 -2.870085,3.01761 -5.217116,4.61359 -0.321879,0.228 -0.482818,0.0671 -0.147528,-0.14753 0.09388,-0.3487 1.891037,-1.67645 3.808897,-3.66137 1.931272,-1.98492 1.756921,-6.29004 -0.08047,-1.68987 -0.523053,-3.17856 -0.429171,-1.5021 -1.58257,-2.49455 -0.590111,-0.49623 -1.636216,0.0134 -0.120704,0.0402 -0.120704,0.20117 l 0.05365,8.10061 q 0,1.08634 0.871755,0.89858 0.187762,-0.0537 0.33529,-0.20117 0.147527,-0.14753 0.321878,-0.25482 0.187763,-0.12071 0.335291,0.0134 0.147527,0.13411 0,0.28164 -0.657169,0.72423 -1.32775,1.34116 -0.67058,0.61694 -1.032694,1.35457 -0.160939,0.32188 -0.482817,0 -1.193634,-1.28751 -2.601852,-1.93127 -0.455995,-0.24141 -0.06706,-0.44258 0.858343,-0.29506 0.844932,-1.77033 l -0.02682,-8.95896 q -0.01341,-1.81056 -0.41576,-2.96396 -0.388937,-1.1534 -0.992459,-1.9581 z"
         style="font-style:normal;font-variant:normal;font-weight:normal;font-stretch:normal;font-family:UnifrakturMaguntia;-inkscape-font-specification:UnifrakturMaguntia;fill:#ff0090;fill-opacity:1;stroke:#000000;stroke-width:1.5;stroke-linecap:butt;stroke-linejoin:round;stroke-miterlimit:4;stroke-dasharray:none;stroke-opacity:1;paint-order:markers stroke fill"
         id="path4536"
         inkscape:connector-curvature="0" />
      <path
         d="m 93.82005,141.29993 q -0.02682,-0.32188 -0.348702,-0.48281 -0.308467,-0.16094 -0.523052,-0.32188 -1.542335,-1.04611 -2.186093,-2.54821 -0.630345,-1.51551 -0.710815,-3.20537 -0.160939,-3.82231 2.065388,-5.82064 0.791285,-0.71082 1.823979,-1.1534 1.032693,-0.45599 2.119034,-0.73764 0.33529,-0.0671 0.496229,0.33529 l 1.931272,4.53313 q 0.134116,0.36211 -0.09388,0.45599 h -0.02682 l -5.498759,2.13245 q -0.160939,0.0805 -0.134116,0.25482 0.657169,2.97737 2.199504,3.8223 1.542335,0.83152 3.071258,0.24141 0.268232,-0.1207 0.33529,0.0402 0.08047,0.16094 -0.09388,0.24141 -1.08634,0.54987 -2.078799,1.12657 -0.979048,0.5767 -1.756921,1.20705 -0.120705,0.0805 -0.362114,0.0536 -0.227997,-0.0268 -0.227997,-0.17435 z m -1.247279,-7.57756 q 0.01341,0.1073 0.09388,0.17436 0.08047,0.0536 0.201174,0 l 2.856673,-1.07293 q 0.201174,-0.0805 0.120704,-0.28165 l -1.636216,-4.01007 q -0.120705,-0.29505 -0.482818,-0.0805 -0.777873,0.456 -1.059517,2.0788 -0.281644,1.62281 -0.09388,3.19196 z"
         style="font-style:normal;font-variant:normal;font-weight:normal;font-stretch:normal;font-family:UnifrakturMaguntia;-inkscape-font-specification:UnifrakturMaguntia;fill:#ff0090;fill-opacity:1;stroke:#000000;stroke-width:1.5;stroke-linecap:butt;stroke-linejoin:round;stroke-miterlimit:4;stroke-dasharray:none;stroke-opacity:1;paint-order:markers stroke fill"
         id="path4538"
         inkscape:connector-curvature="0" />
      <path
         d="m 112.43536,124.30742 q 1.87762,-0.49622 3.44678,0.228 1.05952,0.50964 1.64963,1.40822 0.59011,0.89858 0.4694,2.01174 -0.1207,1.11317 -0.73763,1.64963 -0.60353,0.53646 -0.99246,0.83152 -0.38894,0.29506 -0.73764,0.61693 -0.68399,0.64376 -0.10729,1.1534 1.81056,1.56916 2.0788,2.64209 0.28164,1.07293 -0.37553,1.89104 -0.91199,1.12657 -1.94468,2.14585 -1.01929,1.00587 -2.02516,2.03857 -0.49623,0.48282 -0.60352,-0.0537 -0.17435,-0.73764 -1.58257,-1.28751 -1.39481,-0.56329 -2.95055,-1.07293 -0.28165,-0.10729 -0.0402,-0.40235 0.36212,-0.37552 0.75105,-0.75105 0.38894,-0.37552 0.77788,-0.73764 0.60352,-0.56329 0.40234,-0.99246 -0.18776,-0.44258 -0.71081,-0.99246 -1.31434,-1.36798 -1.2741,-2.56161 0.0536,-1.19364 0.87175,-2.10563 0.76446,-0.84493 1.71669,-1.54233 0.96563,-0.71082 1.82398,-1.58257 0.10729,-0.0939 0.28164,0.0671 1.79716,1.59598 2.99079,1.60939 1.20704,0.0134 1.56916,-0.71082 0.36211,-0.73763 -0.0671,-1.52892 -0.42917,-0.8047 -1.39481,-1.32775 -1.46186,-0.72422 -3.20537,-0.13411 -0.3487,0.13411 -0.41576,-0.14753 -0.0671,-0.28165 0.33529,-0.36212 z m -2.14586,12.04363 q -0.13412,0.228 0.0805,0.3487 0.95222,0.44258 1.90445,0.87176 0.95222,0.42917 1.91786,0.83152 0.67058,0.29505 1.34116,-0.76447 0.83152,-1.32775 -2.1995,-3.48701 -0.46941,-0.28165 -1.1534,0.26823 z m 1.8508,-2.78962 q 0.16094,0.12071 0.29506,-0.0134 l 2.49456,-2.44091 q 0.1207,-0.13412 0.0671,-0.24141 -0.0402,-0.1207 -0.20117,-0.13411 -0.76446,-0.0805 -1.68986,-0.59012 -1.48869,-0.84493 -1.94469,-1.13998 -0.45599,-0.29506 -1.16681,0.53646 -0.89857,1.05952 -0.0134,2.02516 0.89858,0.96563 2.15927,1.99832 z"
         style="font-style:normal;font-variant:normal;font-weight:normal;font-stretch:normal;font-family:UnifrakturMaguntia;-inkscape-font-specification:UnifrakturMaguntia;fill:#ff0090;fill-opacity:1;stroke:#000000;stroke-width:1.5;stroke-linecap:butt;stroke-linejoin:round;stroke-miterlimit:4;stroke-dasharray:none;stroke-opacity:1;paint-order:markers stroke fill"
         id="path4540"
         inkscape:connector-curvature="0" />
      <path
         d="m 123.9157,141.16582 q -0.20118,0.33529 -0.49623,0 -1.47528,-1.83739 -4.47948,-2.76279 -0.24141,-0.0671 -0.228,-0.21459 0,-0.14753 0.14753,-0.21459 0.85834,-0.29505 0.85834,-1.78374 l -0.0402,-6.83992 q 0,-0.14753 -0.0268,-0.228 -0.0268,-0.0939 0.0134,-0.16094 0.0536,-0.0805 0.18776,-0.0939 3.56749,-0.29505 6.34369,-1.94468 0.1207,-0.0671 0.21459,-0.0402 0.10729,0.0268 0.1207,0.18777 0.228,1.44845 1.42163,2.84326 0.65717,0.80469 1.08634,2.1995 0.44258,1.39481 0.3487,2.32021 -0.13411,1.08634 -0.71081,1.95809 -0.5767,0.85835 -1.31434,1.58257 -0.87175,0.85835 -1.87763,1.44846 -1.00587,0.59011 -1.56915,1.74351 z m -1.46187,-11.98998 0.0537,7.72509 q 0,0.20117 0.16094,0.28164 l 2.37385,1.47528 q 0.3487,0.22799 0.64376,-0.13412 1.2741,-1.36798 1.1534,-3.28584 -0.0268,-1.19364 -0.46941,-2.13245 -0.42917,-0.93881 -1.07293,-1.66304 -1.0461,-1.05952 -1.59598,-2.62867 -0.0268,-0.0671 -0.1207,-0.1073 -0.0939,-0.0536 -0.17435,-0.0134 -0.40235,0.14753 -0.8047,0.25482 -0.14753,0.0536 -0.14753,0.228 z"
         style="font-style:normal;font-variant:normal;font-weight:normal;font-stretch:normal;font-family:UnifrakturMaguntia;-inkscape-font-specification:UnifrakturMaguntia;fill:#ff0090;fill-opacity:1;stroke:#000000;stroke-width:1.5;stroke-linecap:butt;stroke-linejoin:round;stroke-miterlimit:4;stroke-dasharray:none;stroke-opacity:1;paint-order:markers stroke fill"
         id="path4542"
         inkscape:connector-curvature="0" />
      <path
         d="m 135.34239,130.8657 -0.0134,6.50463 q 0,0.42917 0.21458,0.54988 l 0.96564,0.56329 q 0.30847,0.18776 0.93881,-0.65717 0.13412,-0.17435 0.33529,-0.0671 0.20118,0.0939 0,0.33529 -1.40822,1.56916 -2.15927,3.08467 -0.22799,0.30847 -0.49623,0 -0.75105,-0.87176 -1.40821,-1.32775 -0.64376,-0.456 -1.90445,-0.75105 -0.24141,-0.0671 -0.24141,-0.21459 0,-0.14752 0.17435,-0.21458 0.89858,-0.14753 0.88516,-1.54234 v -5.67311 q 0,-1.36798 -0.50964,-1.67645 -0.59011,-0.38894 -0.96563,0.28165 -0.14753,0.28164 -0.33529,0.13411 -0.18776,-0.14753 0.0134,-0.46941 0.38894,-0.61693 0.73764,-1.26069 0.36211,-0.64375 0.73764,-1.28751 0.22799,-0.40235 0.60352,-0.14753 1.9715,0.95223 2.36044,2.41409 0.0402,0.13412 0.16094,0.17435 0.12071,0.0268 0.21459,-0.0939 l 2.06538,-2.37385 q 0.0805,-0.0805 0.18777,-0.0671 0.10729,0 0.17435,0.10729 l 1.40822,2.69573 q 0.0536,0.12071 -0.0268,0.228 l -1.60939,1.93127 q -0.0939,0.0939 -0.21459,0.0805 -0.10729,-0.0134 -0.14752,-0.1207 l -1.08634,-2.01174 q -0.0536,-0.0805 -0.17435,-0.0939 -0.1073,-0.0268 -0.20118,0.067 l -0.63034,0.76447 q -0.0537,0.0536 -0.0537,0.13411 z"
         style="font-style:normal;font-variant:normal;font-weight:normal;font-stretch:normal;font-family:UnifrakturMaguntia;-inkscape-font-specification:UnifrakturMaguntia;fill:#ff0090;fill-opacity:1;stroke:#000000;stroke-width:1.5;stroke-linecap:butt;stroke-linejoin:round;stroke-miterlimit:4;stroke-dasharray:none;stroke-opacity:1;paint-order:markers stroke fill"
         id="path4544"
         inkscape:connector-curvature="0" />
      <path
         d="m 144.62321,141.31334 q -0.0268,-0.32187 -0.3487,-0.48281 -0.30847,-0.16094 -0.52305,-0.32188 -1.54234,-1.04611 -2.18609,-2.54821 -0.63035,-1.51551 -0.71082,-3.20537 -0.16094,-3.82231 2.06539,-5.82064 0.79128,-0.71082 1.82398,-1.1534 1.03269,-0.45599 2.11903,-0.73764 0.29506,-0.0536 0.49623,0.33529 l 1.56916,3.16514 q 0.18776,0.38894 -0.0939,0.44259 -0.99246,0.14752 -1.81057,0.6974 -0.37553,0.24141 -0.61693,-0.24141 l -1.39481,-2.89691 q -0.13412,-0.28164 -0.48282,-0.0805 -0.88517,0.52306 -1.12657,2.49456 -0.24141,1.97151 0.10729,3.62114 0.63034,3.09808 2.18609,3.96983 1.55575,0.87176 3.11149,0.26824 0.20118,-0.0939 0.30847,0.0268 0.10729,0.17435 -0.0671,0.25482 -1.08634,0.54988 -2.0788,1.12657 -0.97904,0.5767 -1.75692,1.20705 -0.1207,0.0805 -0.36211,0.0536 -0.228,-0.0268 -0.228,-0.17436 z"
         style="font-style:normal;font-variant:normal;font-weight:normal;font-stretch:normal;font-family:UnifrakturMaguntia;-inkscape-font-specification:UnifrakturMaguntia;fill:#ff0090;fill-opacity:1;stroke:#000000;stroke-width:1.5;stroke-linecap:butt;stroke-linejoin:round;stroke-miterlimit:4;stroke-dasharray:none;stroke-opacity:1;paint-order:markers stroke fill"
         id="path4546"
         inkscape:connector-curvature="0" />
      <path
         d="m 154.38687,141.29993 q -0.0268,-0.32188 -0.3487,-0.48281 -0.30847,-0.16094 -0.52306,-0.32188 -1.54233,-1.04611 -2.18609,-2.54821 -0.63034,-1.51551 -0.71081,-3.20537 -0.16094,-3.82231 2.06538,-5.82064 0.79129,-0.71082 1.82398,-1.1534 1.0327,-0.45599 2.11904,-0.73764 0.33529,-0.0671 0.49623,0.33529 l 1.93127,4.53313 q 0.13411,0.36211 -0.0939,0.45599 h -0.0268 l -5.49876,2.13245 q -0.16094,0.0805 -0.13411,0.25482 0.65717,2.97737 2.1995,3.8223 1.54234,0.83152 3.07126,0.24141 0.26823,-0.1207 0.33529,0.0402 0.0805,0.16094 -0.0939,0.24141 -1.08634,0.54987 -2.0788,1.12657 -0.97905,0.5767 -1.75692,1.20705 -0.12071,0.0805 -0.36211,0.0536 -0.228,-0.0268 -0.228,-0.17435 z m -1.24728,-7.57756 q 0.0134,0.1073 0.0939,0.17436 0.0805,0.0536 0.20117,0 l 2.85668,-1.07293 q 0.20117,-0.0805 0.1207,-0.28165 l -1.63621,-4.01007 q -0.12071,-0.29505 -0.48282,-0.0805 -0.77788,0.456 -1.05952,2.0788 -0.28164,1.62281 -0.0939,3.19196 z"
         style="font-style:normal;font-variant:normal;font-weight:normal;font-stretch:normal;font-family:UnifrakturMaguntia;-inkscape-font-specification:UnifrakturMaguntia;fill:#ff0090;fill-opacity:1;stroke:#000000;stroke-width:1.5;stroke-linecap:butt;stroke-linejoin:round;stroke-miterlimit:4;stroke-dasharray:none;stroke-opacity:1;paint-order:markers stroke fill"
         id="path4548"
         inkscape:connector-curvature="0" />
      <path
         d="m 165.00886,130.8657 -0.0134,6.50463 q 0,0.42917 0.21459,0.54988 l 0.96563,0.56329 q 0.30847,0.18776 0.93882,-0.65717 0.13411,-0.17435 0.33529,-0.0671 0.20117,0.0939 0,0.33529 -1.40822,1.56916 -2.15927,3.08467 -0.228,0.30847 -0.49623,0 -0.75105,-0.87176 -1.40822,-1.32775 -0.64376,-0.456 -1.90445,-0.75105 -0.24141,-0.0671 -0.24141,-0.21459 0,-0.14752 0.17435,-0.21458 0.89858,-0.14753 0.88517,-1.54234 v -5.67311 q 0,-1.36798 -0.50964,-1.67645 -0.59011,-0.38894 -0.96564,0.28165 -0.14753,0.28164 -0.33529,0.13411 -0.18776,-0.14753 0.0134,-0.46941 0.38894,-0.61693 0.73764,-1.26069 0.36211,-0.64375 0.73764,-1.28751 0.228,-0.40235 0.60352,-0.14753 1.97151,0.95223 2.36045,2.41409 0.0402,0.13412 0.16093,0.17435 0.12071,0.0268 0.21459,-0.0939 l 2.06539,-2.37385 q 0.0805,-0.0805 0.18776,-0.0671 0.10729,0 0.17435,0.10729 l 1.40822,2.69573 q 0.0537,0.12071 -0.0268,0.228 l -1.6094,1.93127 q -0.0939,0.0939 -0.21458,0.0805 -0.10729,-0.0134 -0.14753,-0.1207 l -1.08634,-2.01174 q -0.0537,-0.0805 -0.17435,-0.0939 -0.10729,-0.0268 -0.20117,0.067 l -0.63035,0.76447 q -0.0537,0.0536 -0.0537,0.13411 z"
         style="font-style:normal;font-variant:normal;font-weight:normal;font-stretch:normal;font-family:UnifrakturMaguntia;-inkscape-font-specification:UnifrakturMaguntia;fill:#ff0090;fill-opacity:1;stroke:#000000;stroke-width:1.5;stroke-linecap:butt;stroke-linejoin:round;stroke-miterlimit:4;stroke-dasharray:none;stroke-opacity:1;paint-order:markers stroke fill"
         id="path4550"
         inkscape:connector-curvature="0" />
      <path
         d="m 174.2897,141.29993 q -0.0268,-0.32188 -0.3487,-0.48281 -0.30847,-0.16094 -0.52305,-0.32188 -1.54234,-1.04611 -2.1861,-2.54821 -0.63034,-1.51551 -0.71081,-3.20537 -0.16094,-3.82231 2.06539,-5.82064 0.79128,-0.71082 1.82397,-1.1534 1.0327,-0.45599 2.11904,-0.73764 0.33529,-0.0671 0.49623,0.33529 l 1.93127,4.53313 q 0.13412,0.36211 -0.0939,0.45599 h -0.0268 l -5.49876,2.13245 q -0.16094,0.0805 -0.13412,0.25482 0.65717,2.97737 2.1995,3.8223 1.54234,0.83152 3.07126,0.24141 0.26823,-0.1207 0.33529,0.0402 0.0805,0.16094 -0.0939,0.24141 -1.08634,0.54987 -2.0788,1.12657 -0.97905,0.5767 -1.75692,1.20705 -0.1207,0.0805 -0.36211,0.0536 -0.228,-0.0268 -0.228,-0.17435 z m -1.24728,-7.57756 q 0.0134,0.1073 0.0939,0.17436 0.0805,0.0536 0.20118,0 l 2.85667,-1.07293 q 0.20117,-0.0805 0.1207,-0.28165 l -1.63621,-4.01007 q -0.12071,-0.29505 -0.48282,-0.0805 -0.77787,0.456 -1.05952,2.0788 -0.28164,1.62281 -0.0939,3.19196 z"
         style="font-style:normal;font-variant:normal;font-weight:normal;font-stretch:normal;font-family:UnifrakturMaguntia;-inkscape-font-specification:UnifrakturMaguntia;fill:#ff0090;fill-opacity:1;stroke:#000000;stroke-width:1.5;stroke-linecap:butt;stroke-linejoin:round;stroke-miterlimit:4;stroke-dasharray:none;stroke-opacity:1;paint-order:markers stroke fill"
         id="path4552"
         inkscape:connector-curvature="0" />
      <path
         d="m 184.85805,124.30742 q 1.87762,-0.49622 3.44678,0.228 1.05952,0.50964 1.64963,1.40822 0.59011,0.89858 0.46941,2.01174 -0.12071,1.11317 -0.73764,1.64963 -0.60352,0.53646 -0.99246,0.83152 -0.38894,0.29506 -0.73764,0.61693 -0.68399,0.64376 -0.10729,1.1534 1.81056,1.56916 2.0788,2.64209 0.28164,1.07293 -0.37553,1.89104 -0.91199,1.12657 -1.94468,2.14585 -1.01928,1.00587 -2.02515,2.03857 -0.49623,0.48282 -0.60353,-0.0537 -0.17435,-0.73764 -1.58257,-1.28751 -1.3948,-0.56329 -2.95055,-1.07293 -0.28164,-0.10729 -0.0402,-0.40235 0.36212,-0.37552 0.75105,-0.75105 0.38894,-0.37552 0.77788,-0.73764 0.60352,-0.56329 0.40235,-0.99246 -0.18777,-0.44258 -0.71082,-0.99246 -1.31434,-1.36798 -1.2741,-2.56161 0.0536,-1.19364 0.87175,-2.10563 0.76446,-0.84493 1.71669,-1.54233 0.96563,-0.71082 1.82398,-1.58257 0.10729,-0.0939 0.28164,0.0671 1.79716,1.59598 2.99079,1.60939 1.20704,0.0134 1.56916,-0.71082 0.36211,-0.73763 -0.0671,-1.52892 -0.42917,-0.8047 -1.39481,-1.32775 -1.46186,-0.72422 -3.20537,-0.13411 -0.3487,0.13411 -0.41576,-0.14753 -0.0671,-0.28165 0.33529,-0.36212 z m -2.14586,12.04363 q -0.13411,0.228 0.0805,0.3487 0.95223,0.44258 1.90445,0.87176 0.95222,0.42917 1.91786,0.83152 0.67058,0.29505 1.34116,-0.76447 0.83152,-1.32775 -2.1995,-3.48701 -0.46941,-0.28165 -1.1534,0.26823 z m 1.8508,-2.78962 q 0.16094,0.12071 0.29506,-0.0134 l 2.49456,-2.44091 q 0.1207,-0.13412 0.0671,-0.24141 -0.0402,-0.1207 -0.20118,-0.13411 -0.76446,-0.0805 -1.68986,-0.59012 -1.48869,-0.84493 -1.94468,-1.13998 -0.456,-0.29506 -1.16681,0.53646 -0.89858,1.05952 -0.0134,2.02516 0.89858,0.96563 2.15927,1.99832 z"
         style="font-style:normal;font-variant:normal;font-weight:normal;font-stretch:normal;font-family:UnifrakturMaguntia;-inkscape-font-specification:UnifrakturMaguntia;fill:#ff0090;fill-opacity:1;stroke:#000000;stroke-width:1.5;stroke-linecap:butt;stroke-linejoin:round;stroke-miterlimit:4;stroke-dasharray:none;stroke-opacity:1;paint-order:markers stroke fill"
         id="path4554"
         inkscape:connector-curvature="0" />
      <path
         d="m 196.33838,124.30742 q 1.87763,-0.49622 3.44678,0.228 1.05952,0.50964 1.64963,1.40822 0.59011,0.89858 0.46941,2.01174 -0.12071,1.11317 -0.73764,1.64963 -0.60352,0.53646 -0.99246,0.83152 -0.38894,0.29506 -0.73764,0.61693 -0.68399,0.64376 -0.10729,1.1534 1.81057,1.56916 2.0788,2.64209 0.28164,1.07293 -0.37553,1.89104 -0.91199,1.12657 -1.94468,2.14585 -1.01928,1.00587 -2.02515,2.03857 -0.49623,0.48282 -0.60353,-0.0537 -0.17435,-0.73764 -1.58257,-1.28751 -1.3948,-0.56329 -2.95055,-1.07293 -0.28164,-0.10729 -0.0402,-0.40235 0.36211,-0.37552 0.75105,-0.75105 0.38893,-0.37552 0.77787,-0.73764 0.60352,-0.56329 0.40235,-0.99246 -0.18776,-0.44258 -0.71082,-0.99246 -1.31434,-1.36798 -1.2741,-2.56161 0.0537,-1.19364 0.87175,-2.10563 0.76447,-0.84493 1.71669,-1.54233 0.96564,-0.71082 1.82398,-1.58257 0.10729,-0.0939 0.28164,0.0671 1.79716,1.59598 2.99079,1.60939 1.20705,0.0134 1.56916,-0.71082 0.36211,-0.73763 -0.0671,-1.52892 -0.42917,-0.8047 -1.39481,-1.32775 -1.46186,-0.72422 -3.20537,-0.13411 -0.3487,0.13411 -0.41576,-0.14753 -0.0671,-0.28165 0.33529,-0.36212 z m -2.14586,12.04363 q -0.13411,0.228 0.0805,0.3487 0.95223,0.44258 1.90445,0.87176 0.95222,0.42917 1.91786,0.83152 0.67058,0.29505 1.34116,-0.76447 0.83152,-1.32775 -2.1995,-3.48701 -0.46941,-0.28165 -1.1534,0.26823 z m 1.8508,-2.78962 q 0.16094,0.12071 0.29506,-0.0134 l 2.49456,-2.44091 q 0.1207,-0.13412 0.0671,-0.24141 -0.0402,-0.1207 -0.20118,-0.13411 -0.76446,-0.0805 -1.68986,-0.59012 -1.48869,-0.84493 -1.94468,-1.13998 -0.456,-0.29506 -1.16681,0.53646 -0.89858,1.05952 -0.0134,2.02516 0.89857,0.96563 2.15926,1.99832 z"
         style="font-style:normal;font-variant:normal;font-weight:normal;font-stretch:normal;font-family:UnifrakturMaguntia;-inkscape-font-specification:UnifrakturMaguntia;fill:#ff0090;fill-opacity:1;stroke:#000000;stroke-width:1.5;stroke-linecap:butt;stroke-linejoin:round;stroke-miterlimit:4;stroke-dasharray:none;stroke-opacity:1;paint-order:markers stroke fill"
         id="path4556"
         inkscape:connector-curvature="0" />
    </g>
  </g>
</svg>
