<svg xmlns="http://www.w3.org/2000/svg" width="276" height="36" viewBox="0 0 193.351 25.286"><g aria-label="sami the sorceress" stroke-width="2.1" fill="#ff0090" stroke="#000" stroke-linejoin="round"><path d="M5.315 3.242q1.878-.497 3.447.228 1.06.51 1.65 1.408.59.899.47 2.012-.122 1.113-.739 1.65-.603.536-.992.83-.389.296-.738.618-.684.644-.107 1.153 1.81 1.57 2.079 2.642.282 1.073-.376 1.891-.912 1.127-1.944 2.146-1.02 1.006-2.025 2.039-.497.483-.604-.054-.174-.738-1.583-1.288-1.394-.563-2.95-1.072-.282-.108-.04-.403.362-.375.75-.75.39-.376.779-.738.603-.564.402-.993-.188-.443-.71-.992Q.768 12.2.808 11.007q.054-1.194.872-2.106.764-.845 1.716-1.542.966-.71 1.824-1.583.108-.093.282.068Q7.3 7.44 8.493 7.453q1.208.013 1.57-.71.362-.739-.067-1.53-.43-.804-1.395-1.328-1.462-.724-3.205-.134-.349.134-.416-.147-.067-.282.335-.362zM3.17 15.285q-.134.228.08.349.953.443 1.905.872.953.429 1.918.831.67.295 1.341-.764.832-1.328-2.2-3.487-.469-.282-1.153.268zm1.851-2.79q.161.121.295-.013l2.495-2.44q.12-.135.067-.242-.04-.12-.201-.134-.765-.08-1.69-.59-1.489-.845-1.945-1.14-.456-.295-1.167.536-.898 1.06-.013 2.025.899.966 2.16 1.999zM18.754 17.968q-.684.523-1.502 1.153-.818.617-1.516 1.14-.241.188-.389.161-.134-.027-.107-.241 0-.282-.832-1.073-2.186-2.052-2.105-5.338.08-2.817 2.615-4.761.778-.59 1.448-1.248.684-.657 1.208-1.596.214-.415.59-.026 2.038 2.306 4.077 2.722.644.12.134.51-.63.456-.684 1.126v.027l.04 6.13q0 .616.443.844.456.228.979-.348.2-.228.375-.108.188.108.014.403-.483.724-.94 1.421-.442.698-.75 1.449l-.014.013q-.187.309-.456 0-.147-.16-.348-.214-1.53-.336-1.932-2.026-.026-.08-.134-.16-.12-.014-.214.04zm.147-7.9q-.831-.228-1.944-1.287-.537-.644-.859-.121-1.421 2.119-1.113 4.68.43 3.662 2.575 4.52.014 0 .027.014.55.174 1.328-.657.053-.08.053-.148-.013-.201-.013-.63l.12-6.156q0-.161-.174-.215zM29.684 9.317l-.013 5.687q-.014 2.186.804 2.48.094.081.094.189 0 .107-.094.174-1.18.872-1.958 2.4-.08.121-.214.121-.12 0-.188-.12-.778-1.516-2.039-2.388-.08-.08-.08-.187 0-.108.094-.188.898-.295.872-2.481v-4.735q0-1.368-.51-1.676-.59-.389-.966.282-.147.281-.348.16-.188-.134.026-.496.39-.617.738-1.26.362-.644.738-1.288.214-.389.603-.16l.014.013q1.931.952 2.333 2.36.04.134.148.148.107.04.214-.027.658-.564 1.382-1.207.737-.657 1.02-1.127.214-.375.59-.16 1.93.951 2.346 2.32.054.187.161.187.107 0 .188-.08.724-.59 1.422-1.22.71-.645.992-1.208.148-.349.483.014.805.844 1.381 1.34.577.497 1.945.738.201.04.215.175 0 .228-.148.241-.349.134-.617.47-.268.321-.268 1.086v5.834q0 1.368.51 1.676.59.35.965-.295.134-.255.322-.107.201.134.013.456-.402.63-.764 1.274l-.724 1.26q-.242.376-.604.175-1.22-.59-1.837-1.448-.604-.859-.604-2.052l.014-7.028q0-.402-.215-.55l-1.126-.939q-.161-.107-.322-.013-.872.67-1.073.845-.201.16-.201.362l-.014 5.66q0 2.2.818 2.48.094.095.094.189 0 .08-.094.174-1.18.845-1.971 2.4-.08.121-.215.121-.134 0-.174-.12-.765-1.49-2.039-2.388-.094-.067-.094-.174 0-.107.094-.201.952-.295.885-2.481l-.013-4.735q0-.992-.51-1.676-.63-.832-1.274-.322l-1.126.858-.054.08zM45.94 16.707l-.095-7.35q0-.254-.08-.415-.322-.523-.55-.255l-.537.55q-.214.241-.415.053-.188-.187.067-.523.59-.737 1.06-1.475.469-.738.965-1.462.214-.255.496.014.563.684 1.1 1.207.536.51 1.529 1.086.281.107.241.255-.027.147-.174.16-.349.135-.617.47-.268.322-.268 1.087v5.673q0 1.368.51 1.676.59.349.965-.295.134-.255.322-.107.201.134 0 .456-.403.63-.751 1.274-.349.63-.711 1.26-.255.376-.63.161-1.207-.576-1.824-1.408-.604-.831-.604-2.092zM47.883.787q1.488 0 1.354 1.435-.08.725-.912 1.462-.818.725-1.3.711-.483 0-.738-.764-.255-.765-.201-1.409.04-.616.59-1.019.563-.416 1.207-.416zM64.42 8.928l-.013 7.51q0 .417.201.55l.966.55q.281.242.938-.643.121-.175.322-.054.215.12.027.322-1.435 1.57-2.16 3.085-.227.281-.495 0-.751-.885-1.395-1.328-.644-.443-1.918-.751-.215-.04-.228-.201-.013-.161.16-.228.9-.215.886-1.543l-.013-7.255q.013-.242-.201-.242h-1.583q-.188 0-.241-.147-.054-.148.12-.255 1.61-1.14 3.273-2.75 1.676-1.609 3.044-3.057.174-.188.335-.067.175.107.014.322-.617.764-1.247 1.984-.617 1.221-.752 2.227-.026.134.014.201.08.08.188.08h2.32q.094 0 .16.068.068.093.068.174l-.054 1.006q-.027.214-.228.214h-2.32q-.188 0-.188.228zM68.497 2.222q-.174-.254.027-.388.201-.148.403.093.59.738.952 1.583.04.134.188.134.12.027.214-.107.778-1.395 2.441-2.146 1.676-.765 3.393-.617.349.013.349.282 0 .268-.335.241-1.409-.094-2.455.644-1.046.737-1.032 2.843l.026 3.004q0 .134.108.201.107.054.214-.013.738-.402 1.476-.885.75-.483 1.38-1.086.497-.497.564.174.054.496.416.885t.67.765q1.811 2.306 1.865 4.989.094 3.943-2.776 6.974-2.87 3.017-5.218 4.613-.321.228-.482.067-.148-.147.094-.348 1.89-1.677 3.808-3.662 1.932-1.985 1.757-6.29-.08-1.69-.523-3.178-.429-1.502-1.582-2.495-.59-.496-1.636.014-.121.04-.121.2l.053 8.101q0 1.087.872.899.188-.054.336-.201.147-.148.321-.255.188-.12.336.013.147.134 0 .282-.657.724-1.328 1.341-.67.617-1.033 1.355-.16.322-.483 0-1.193-1.288-2.601-1.932-.456-.241-.068-.442.859-.295.845-1.77l-.026-8.96q-.014-1.81-.416-2.963-.39-1.154-.993-1.959zM84.497 20.234q-.026-.322-.348-.483-.309-.16-.523-.321-1.543-1.047-2.186-2.549-.63-1.515-.711-3.205-.161-3.822 2.065-5.82.791-.712 1.824-1.154 1.033-.456 2.12-.738.334-.067.495.336l1.932 4.533q.134.362-.094.456h-.027l-5.499 2.132q-.16.08-.134.255.657 2.977 2.2 3.822 1.542.832 3.07.242.27-.121.336.04.08.16-.094.241-1.086.55-2.079 1.127-.979.577-1.756 1.207-.121.08-.363.053-.228-.026-.228-.174zm-1.247-7.577q.014.107.094.174.08.054.201 0l2.857-1.073q.201-.08.12-.282l-1.636-4.01q-.12-.295-.482-.08-.778.456-1.06 2.079-.282 1.622-.094 3.192zM103.113 3.242q1.877-.497 3.447.228 1.06.51 1.65 1.408.59.899.469 2.012t-.738 1.65q-.604.536-.993.83-.388.296-.737.618-.684.644-.107 1.153 1.81 1.57 2.078 2.642.282 1.073-.375 1.891-.912 1.127-1.945 2.146-1.02 1.006-2.025 2.039-.496.483-.604-.054-.174-.738-1.582-1.288-1.395-.563-2.95-1.072-.282-.108-.04-.403.361-.375.75-.75.39-.376.778-.738.604-.564.402-.993-.187-.443-.71-.992-1.315-1.368-1.275-2.562.054-1.194.872-2.106.765-.845 1.717-1.542.966-.71 1.824-1.583.107-.093.282.068 1.797 1.596 2.99 1.609 1.207.013 1.57-.71.362-.739-.068-1.53-.429-.804-1.394-1.328-1.462-.724-3.206-.134-.348.134-.416-.147-.067-.282.336-.362zm-2.146 12.043q-.134.228.08.349.953.443 1.905.872.952.429 1.918.831.67.295 1.34-.764.832-1.328-2.199-3.487-.469-.282-1.153.268zm1.85-2.79q.162.121.296-.013l2.494-2.44q.121-.135.067-.242-.04-.12-.2-.134-.765-.08-1.69-.59-1.49-.845-1.945-1.14-.456-.295-1.167.536-.899 1.06-.014 2.025.9.966 2.16 1.999zM114.593 20.1q-.201.335-.496 0-1.475-1.837-4.48-2.763-.241-.067-.228-.214 0-.148.148-.215.858-.295.858-1.784l-.04-6.84q0-.147-.027-.228-.027-.093.014-.16.053-.081.187-.094 3.568-.295 6.344-1.945.12-.067.215-.04.107.027.12.188.228 1.448 1.422 2.843.657.804 1.086 2.2.443 1.394.35 2.32-.135 1.086-.712 1.958-.576.858-1.314 1.582-.872.859-1.878 1.449-1.006.59-1.569 1.743zm-1.462-11.99l.054 7.725q0 .201.16.282l2.375 1.475q.348.228.643-.134 1.275-1.368 1.154-3.286-.027-1.193-.47-2.132-.429-.94-1.072-1.663-1.047-1.06-1.596-2.629-.027-.067-.121-.107-.094-.054-.174-.014-.403.148-.805.255-.148.054-.148.228zM126.02 9.8l-.014 6.505q0 .429.215.55l.966.563q.308.188.938-.657.135-.175.336-.067.2.093 0 .335-1.409 1.569-2.16 3.084-.228.309-.496 0-.75-.871-1.408-1.327-.644-.456-1.904-.751-.242-.067-.242-.215 0-.147.174-.214.9-.148.886-1.543V10.39q0-1.368-.51-1.676-.59-.39-.966.281-.147.282-.335.134-.188-.147.013-.469.39-.617.738-1.26.362-.644.738-1.288.228-.403.603-.148 1.972.952 2.36 2.414.04.134.162.175.12.026.214-.094l2.066-2.374q.08-.08.187-.067.108 0 .175.107l1.408 2.696q.054.12-.027.228l-1.61 1.931q-.093.094-.214.08-.107-.013-.147-.12l-1.087-2.012q-.053-.08-.174-.094-.107-.027-.201.067l-.63.765q-.054.053-.054.134zM135.3 20.248q-.026-.322-.348-.483-.309-.161-.523-.322-1.542-1.046-2.186-2.548-.63-1.516-.711-3.206-.161-3.822 2.065-5.82.792-.711 1.824-1.154 1.033-.456 2.12-.737.294-.054.496.335l1.569 3.165q.187.39-.094.443-.993.147-1.81.697-.376.242-.618-.241L135.69 7.48q-.135-.282-.483-.08-.885.522-1.127 2.494-.241 1.971.107 3.621.63 3.098 2.187 3.97 1.555.872 3.111.268.201-.094.308.027.108.174-.067.255-1.086.55-2.078 1.126-.98.577-1.757 1.207-.121.08-.362.054-.228-.027-.228-.174zM145.064 20.234q-.027-.322-.348-.483-.309-.16-.523-.321-1.543-1.047-2.187-2.549-.63-1.515-.71-3.205-.161-3.822 2.065-5.82.791-.712 1.824-1.154 1.033-.456 2.119-.738.335-.067.496.336l1.932 4.533q.134.362-.094.456h-.027l-5.499 2.132q-.16.08-.134.255.657 2.977 2.2 3.822 1.542.832 3.07.242.269-.121.336.04.08.16-.094.241-1.086.55-2.079 1.127-.979.577-1.757 1.207-.12.08-.362.053-.228-.026-.228-.174zm-1.247-7.577q.013.107.094.174.08.054.201 0l2.857-1.073q.2-.08.12-.282l-1.636-4.01q-.12-.295-.483-.08-.777.456-1.06 2.079-.28 1.622-.093 3.192zM155.686 9.8l-.013 6.505q0 .429.214.55l.966.563q.309.188.939-.657.134-.175.335-.067.201.093 0 .335-1.408 1.569-2.16 3.084-.227.309-.495 0-.751-.871-1.409-1.327-.643-.456-1.904-.751-.241-.067-.241-.215 0-.147.174-.214.899-.148.885-1.543V10.39q0-1.368-.51-1.676-.59-.39-.965.281-.148.282-.335.134-.188-.147.013-.469.389-.617.738-1.26.362-.644.737-1.288.228-.403.604-.148 1.971.952 2.36 2.414.04.134.161.175.12.026.215-.094l2.065-2.374q.08-.08.188-.067.107 0 .174.107l1.408 2.696q.054.12-.026.228l-1.61 1.931q-.094.094-.214.08-.108-.013-.148-.12l-1.086-2.012q-.054-.08-.175-.094-.107-.027-.2.067l-.631.765q-.054.053-.054.134zM164.967 20.234q-.027-.322-.349-.483-.308-.16-.523-.321-1.542-1.047-2.186-2.549-.63-1.515-.71-3.205-.162-3.822 2.065-5.82.791-.712 1.824-1.154 1.032-.456 2.119-.738.335-.067.496.336l1.931 4.533q.134.362-.094.456h-.026l-5.5 2.132q-.16.08-.133.255.657 2.977 2.2 3.822 1.542.832 3.07.242.269-.121.336.04.08.16-.094.241-1.086.55-2.079 1.127-.979.577-1.757 1.207-.12.08-.362.053-.228-.026-.228-.174zm-1.247-7.577q.013.107.094.174.08.054.2 0l2.858-1.073q.2-.08.12-.282l-1.636-4.01q-.12-.295-.483-.08-.778.456-1.06 2.079-.28 1.622-.093 3.192zM175.535 3.242q1.878-.497 3.447.228 1.06.51 1.65 1.408.59.899.47 2.012-.121 1.113-.738 1.65-.604.536-.993.83-.389.296-.737.618-.684.644-.108 1.153 1.81 1.57 2.079 2.642.282 1.073-.375 1.891-.912 1.127-1.945 2.146-1.02 1.006-2.025 2.039-.497.483-.604-.054-.174-.738-1.582-1.288-1.395-.563-2.951-1.072-.282-.108-.04-.403.362-.375.75-.75.39-.376.779-.738.603-.564.402-.993-.188-.443-.71-.992-1.315-1.368-1.275-2.562.054-1.194.872-2.106.764-.845 1.717-1.542.965-.71 1.824-1.583.107-.093.281.068 1.797 1.596 2.991 1.609 1.207.013 1.57-.71.361-.739-.068-1.53-.43-.804-1.395-1.328-1.462-.724-3.205-.134-.349.134-.416-.147-.067-.282.335-.362zm-2.145 12.043q-.135.228.08.349.952.443 1.905.872.952.429 1.917.831.671.295 1.342-.764.831-1.328-2.2-3.487-.47-.282-1.153.268zm1.85-2.79q.161.121.295-.013l2.495-2.44q.12-.135.067-.242-.04-.12-.201-.134-.765-.08-1.69-.59-1.489-.845-1.945-1.14-.456-.295-1.166.536-.899 1.06-.014 2.025.899.966 2.16 1.999zM187.016 3.242q1.877-.497 3.447.228 1.06.51 1.65 1.408.59.899.469 2.012t-.738 1.65q-.604.536-.993.83-.388.296-.737.618-.684.644-.107 1.153 1.81 1.57 2.078 2.642.282 1.073-.375 1.891-.912 1.127-1.945 2.146-1.02 1.006-2.025 2.039-.496.483-.604-.054-.174-.738-1.582-1.288-1.395-.563-2.95-1.072-.282-.108-.04-.403.361-.375.75-.75.39-.376.778-.738.604-.564.402-.993-.187-.443-.71-.992-1.315-1.368-1.274-2.562.053-1.194.871-2.106.765-.845 1.717-1.542.966-.71 1.824-1.583.107-.093.282.068 1.797 1.596 2.99 1.609 1.207.013 1.57-.71.362-.739-.068-1.53-.429-.804-1.394-1.328-1.462-.724-3.206-.134-.348.134-.416-.147-.067-.282.336-.362zm-2.146 12.043q-.134.228.08.349.953.443 1.905.872.952.429 1.918.831.67.295 1.34-.764.832-1.328-2.199-3.487-.469-.282-1.153.268zm1.85-2.79q.162.121.296-.013l2.494-2.44q.121-.135.067-.242-.04-.12-.2-.134-.765-.08-1.69-.59-1.49-.845-1.945-1.14-.456-.295-1.167.536-.899 1.06-.013 2.025.898.966 2.159 1.999z" paint-order="markers stroke fill"/></g></svg>