<?xml version="1.0" standalone="no"?>
<!DOCTYPE svg PUBLIC "-//W3C//DTD SVG 20010904//EN"
 "http://www.w3.org/TR/2001/REC-SVG-20010904/DTD/svg10.dtd">
<svg version="1.0" xmlns="http://www.w3.org/2000/svg"
 width="150.000000pt" height="150.000000pt" viewBox="0 0 150.000000 150.000000"
 preserveAspectRatio="xMidYMid meet">
<metadata>
Created by potrace 1.11, written by Peter Selinger 2001-2013
</metadata>
<g transform="translate(0.000000,150.000000) scale(0.100000,-0.100000)"
fill="#000000" stroke="none">
<path d="M598 1251 c-165 -53 -304 -195 -352 -360 -21 -71 -21 -211 0 -282 26
-89 72 -164 143 -232 107 -104 214 -147 362 -147 148 0 260 47 368 153 102
101 151 220 151 368 0 235 -152 436 -379 503 -75 22 -219 20 -293 -3z m231
-81 c29 -5 73 -19 98 -30 l46 -20 -112 -81 -112 -81 -87 63 c-48 34 -98 71
-111 81 l-24 18 47 21 c83 36 166 46 255 29z m-284 -342 c4 -12 -22 -36 -100
-92 -58 -42 -107 -76 -109 -76 -3 0 -8 21 -12 46 -15 101 31 245 105 327 l35
39 38 -113 c21 -63 41 -121 43 -131z m586 117 c35 -72 54 -174 45 -239 -4 -25
-10 -46 -12 -46 -16 0 -214 154 -211 164 2 6 22 64 43 128 l38 118 34 -33 c18
-17 47 -59 63 -92z m-476 -35 c4 -6 1 -18 -6 -26 -14 -17 -20 -10 -34 34 -6
21 -5 23 13 13 12 -6 24 -16 27 -21z m226 -4 c-11 -28 -25 -33 -37 -14 -4 6 3
19 16 30 28 23 34 19 21 -16z m-75 -108 l31 -23 -15 -52 -15 -53 -57 0 -57 0
-15 52 -15 53 41 31 c44 34 47 34 102 -8z m-216 -114 c0 -9 -11 -14 -32 -14
l-33 0 25 19 c26 21 40 19 40 -5z m356 -12 c-33 -4 -41 1 -32 23 5 14 9 14 33
-2 l27 -18 -28 -3z m-291 -189 c16 -49 34 -105 42 -127 l13 -39 -42 7 c-107
17 -240 112 -287 205 l-21 41 134 0 134 0 27 -87z m109 65 c-7 -26 -12 -33
-18 -27 -2 2 -7 14 -10 27 -6 18 -4 22 14 22 18 0 20 -4 14 -22z m355 -19
c-48 -95 -179 -188 -288 -205 -35 -6 -43 -4 -38 7 3 8 22 65 43 127 l37 112
134 0 133 0 -21 -41z"/>
</g>
</svg>
